<?xml version="1.0" encoding="UTF-8"?><svg id="Layer_1" xmlns="http://www.w3.org/2000/svg" viewBox="0 0 37.4 14.08"><defs><style>.cls-1{fill:#fff;}.cls-2{fill:#e23d2d;}</style></defs><path class="cls-2" d="M34.4,14H3c-1.66,0-3-1.34-3-3V3C0,1.34,1.34,0,3,0h31.4c1.66,0,3,1.34,3,3v8c0,1.66-1.34,3-3,3"/><path class="cls-1" d="M25.87,3v7.99h-1.6V5.76h-1.88v-1.16c.39-.01,.71-.05,.95-.12,.25-.07,.47-.18,.67-.34,.3-.23,.49-.61,.6-1.14h1.25Z"/><polygon class="cls-1" points="6.48 3 8.77 3 5.29 11 3 11 6.48 3"/><polygon class="cls-1" points="9.88 3 18.1 3 17.17 5.17 11.27 5.17 9.65 8.83 15.55 8.83 14.63 11 6.41 11 9.88 3"/></svg>