<?xml version="1.0" encoding="UTF-8"?><svg id="Layer_1" xmlns="http://www.w3.org/2000/svg" viewBox="0 0 37.4 14.08"><defs><style>.cls-1{fill:#ffc609;}.cls-2{fill:#231f20;}</style></defs><path class="cls-1" d="M34.4,14H3c-1.66,0-3-1.34-3-3V3C0,1.34,1.34,0,3,0h31.4c1.66,0,3,1.34,3,3v8c0,1.66-1.34,3-3,3"/><g><path class="cls-2" d="M27.52,9.58v1.42h-5.76c0-.43,.07-.85,.21-1.24s.34-.73,.59-1.02c.2-.22,.43-.43,.69-.64,.26-.21,.79-.59,1.58-1.14,.38-.27,.65-.51,.8-.74s.23-.5,.23-.8c0-.35-.1-.63-.31-.85s-.48-.33-.81-.33c-.82,0-1.25,.59-1.27,1.78h-1.54v-.17c0-.97,.27-1.72,.81-2.25,.53-.52,1.21-.78,2.05-.78,.74,0,1.37,.21,1.87,.63,.54,.46,.81,1.08,.81,1.85,0,.68-.22,1.26-.65,1.75-.14,.16-.28,.29-.4,.39s-.45,.33-.98,.7c-.5,.35-.86,.62-1.08,.8-.22,.19-.42,.4-.6,.64h3.75Z"/><path class="cls-2" d="M32.65,3v7.99h-1.6V5.76h-1.88v-1.16c.39-.01,.71-.05,.95-.12,.25-.07,.47-.18,.67-.34,.3-.23,.49-.61,.6-1.14h1.25Z"/></g><polygon class="cls-2" points="6.48 3 8.77 3 5.29 11 3 11 6.48 3"/><polygon class="cls-2" points="9.88 3 18.1 3 17.17 5.17 11.27 5.17 9.65 8.83 15.55 8.83 14.63 11 6.41 11 9.88 3"/></svg>