<?xml version="1.0" encoding="UTF-8"?><svg id="Layer_1" xmlns="http://www.w3.org/2000/svg" viewBox="0 0 37.4 14.08"><defs><style>.cls-1{fill:#fff;}.cls-2{fill:#b01117;}</style></defs><path class="cls-2" d="M34.4,14H3c-1.66,0-3-1.34-3-3V3C0,1.34,1.34,0,3,0h31.4c1.66,0,3,1.34,3,3v8c0,1.66-1.34,3-3,3"/><g><path class="cls-1" d="M27.12,3v1.42h-3.22l-.34,1.8c.39-.41,.88-.61,1.48-.61s1.1,.16,1.54,.48c.65,.48,.97,1.2,.97,2.18s-.35,1.71-1.04,2.27c-.54,.44-1.18,.66-1.94,.66-.85,0-1.53-.23-2.04-.68-.51-.45-.79-1.07-.82-1.84h1.57c.03,.28,.12,.52,.27,.72,.24,.31,.58,.46,1.02,.46s.75-.15,1-.45c.24-.29,.36-.65,.36-1.08,0-.46-.12-.83-.37-1.1-.25-.28-.58-.41-.99-.41-.5,0-.9,.23-1.18,.68l-1.43-.02,.76-4.46h4.39Z"/><path class="cls-1" d="M32.65,3v7.99h-1.6V5.76h-1.88v-1.16c.39-.01,.71-.05,.95-.12,.25-.07,.47-.18,.67-.34,.3-.23,.49-.61,.6-1.14h1.25Z"/></g><polygon class="cls-1" points="6.48 3 8.77 3 5.29 11 3 11 6.48 3"/><polygon class="cls-1" points="9.88 3 18.1 3 17.17 5.17 11.27 5.17 9.65 8.83 15.55 8.83 14.63 11 6.41 11 9.88 3"/></svg>