<?xml version="1.0" encoding="UTF-8"?><svg id="Layer_1" xmlns="http://www.w3.org/2000/svg" viewBox="0 0 37.4 14.08"><defs><style>.cls-1{fill:#ee5ba0;}.cls-2{fill:#fff;}</style></defs><path class="cls-1" d="M34.4,14H3c-1.66,0-3-1.34-3-3V3C0,1.34,1.34,0,3,0h31.4c1.66,0,3,1.34,3,3v8c0,1.66-1.34,3-3,3"/><g><path class="cls-2" d="M27.38,5h-1.52c-.14-.62-.49-.92-1.05-.92-.59,0-1.01,.36-1.26,1.09-.1,.29-.18,.74-.25,1.34,.24-.32,.5-.56,.77-.7s.6-.21,.98-.21c.75,0,1.35,.27,1.81,.8,.43,.5,.65,1.13,.65,1.89,0,.9-.29,1.62-.88,2.17-.52,.49-1.16,.74-1.89,.74-.94,0-1.68-.36-2.2-1.07s-.79-1.71-.79-2.98c0-1.36,.28-2.43,.84-3.2,.54-.75,1.29-1.12,2.23-1.12,.89,0,1.56,.3,2.03,.89,.27,.34,.44,.77,.52,1.3Zm-2.71,1.83c-.38,0-.69,.16-.91,.48-.2,.28-.31,.62-.31,1.02s.1,.73,.31,1.02c.23,.33,.54,.49,.93,.49s.69-.16,.92-.46c.22-.29,.33-.64,.33-1.03s-.1-.72-.29-1c-.24-.34-.57-.51-.98-.51Z"/><path class="cls-2" d="M32.65,3v7.99h-1.6V5.76h-1.88v-1.16c.39-.01,.71-.05,.95-.12,.25-.07,.47-.18,.67-.34,.3-.23,.49-.61,.6-1.14h1.25Z"/></g><polygon class="cls-2" points="6.48 3 8.77 3 5.29 11 3 11 6.48 3"/><polygon class="cls-2" points="9.88 3 18.1 3 17.17 5.17 11.27 5.17 9.65 8.83 15.55 8.83 14.63 11 6.41 11 9.88 3"/></svg>