<?xml version="1.0" encoding="UTF-8"?><svg id="Layer_1" xmlns="http://www.w3.org/2000/svg" viewBox="0 0 37.4 14.08"><defs><style>.cls-1{fill:#fff;}.cls-2{fill:#6ba2bb;}</style></defs><path class="cls-2" d="M34.4,14H3c-1.66,0-3-1.34-3-3V3C0,1.34,1.34,0,3,0h31.4c1.66,0,3,1.34,3,3v8c0,1.66-1.34,3-3,3"/><g><path class="cls-1" d="M23.15,6.71c-.37-.13-.66-.34-.86-.63-.2-.29-.3-.65-.3-1.06,0-.69,.29-1.25,.85-1.66,.5-.36,1.1-.55,1.79-.55,.79,0,1.43,.22,1.93,.65,.47,.41,.71,.91,.71,1.51,0,.42-.1,.78-.3,1.08-.2,.3-.49,.52-.85,.65,.29,.08,.52,.19,.71,.32,.51,.37,.76,.91,.76,1.61,0,.81-.31,1.46-.94,1.94-.52,.41-1.2,.61-2.02,.61-.89,0-1.6-.22-2.13-.67-.55-.46-.83-1.07-.83-1.82,0-.7,.24-1.25,.73-1.63,.22-.17,.47-.29,.74-.36Zm1.46,.6c-.39,0-.72,.12-.96,.36-.25,.24-.38,.55-.38,.93s.13,.71,.38,.95c.25,.24,.58,.37,.99,.37,.46,0,.8-.13,1.03-.41,.22-.26,.33-.56,.33-.9,0-.39-.13-.7-.38-.95-.24-.24-.58-.36-1.01-.36Zm.01-3.25c-.35,0-.63,.1-.85,.29-.21,.19-.32,.45-.32,.77,0,.33,.11,.6,.33,.8,.22,.2,.51,.3,.87,.3s.65-.1,.86-.29c.21-.2,.32-.46,.32-.8s-.11-.59-.32-.78c-.21-.19-.51-.28-.89-.28Z"/><path class="cls-1" d="M32.65,3v7.99h-1.6V5.76h-1.88v-1.16c.39-.01,.71-.05,.95-.12,.25-.07,.47-.18,.67-.34,.3-.23,.49-.61,.6-1.14h1.25Z"/></g><polygon class="cls-1" points="6.48 3 8.77 3 5.29 11 3 11 6.48 3"/><polygon class="cls-1" points="9.88 3 18.1 3 17.17 5.17 11.27 5.17 9.65 8.83 15.55 8.83 14.63 11 6.41 11 9.88 3"/></svg>