<?xml version="1.0" encoding="UTF-8"?><svg id="Layer_1" xmlns="http://www.w3.org/2000/svg" viewBox="0 0 37.4 14.08"><defs><style>.cls-1{fill:#fff;}.cls-2{fill:#5c6e25;}</style></defs><path class="cls-2" d="M34.4,14H3c-1.66,0-3-1.34-3-3V3C0,1.34,1.34,0,3,0h31.4c1.66,0,3,1.34,3,3v8c0,1.66-1.34,3-3,3"/><g><path class="cls-1" d="M27.54,9.58v1.42h-5.76c0-.43,.07-.85,.21-1.24,.14-.39,.34-.73,.59-1.02,.2-.22,.43-.43,.69-.64,.26-.21,.79-.59,1.58-1.14,.38-.27,.65-.51,.8-.74,.15-.23,.23-.5,.23-.8,0-.35-.1-.63-.31-.85s-.48-.33-.81-.33c-.82,0-1.25,.59-1.27,1.78h-1.54v-.17c0-.97,.27-1.72,.82-2.25,.53-.52,1.21-.78,2.05-.78,.74,0,1.37,.21,1.86,.63,.54,.46,.82,1.08,.82,1.85,0,.68-.22,1.26-.65,1.75-.14,.16-.28,.29-.4,.39s-.45,.33-.98,.7c-.5,.35-.86,.62-1.08,.8-.22,.19-.42,.4-.6,.64h3.75Z"/><path class="cls-1" d="M34.12,3.01v1.36s-.17,.19-.39,.44c-.3,.34-.6,.77-.89,1.29-.29,.52-.52,1.02-.69,1.5-.35,.99-.56,2.13-.63,3.41h-1.65c.01-.6,.12-1.27,.31-2,.2-.73,.47-1.46,.82-2.2,.5-1.04,1.01-1.81,1.52-2.31h-3.77v-1.48h5.37Z"/></g><polygon class="cls-1" points="6.48 3 8.76 3 5.29 11 3 11 6.48 3"/><path class="cls-1" d="M15.21,8.63c.25,0,.48-.15,.58-.38l2.28-5.25H9.88l-3.47,8h2.27l2.63-5.99h3.62l-.83,1.91h-2.98s2.5,4.08,2.5,4.08h2.44l-1.96-2.37h1.12Z"/></svg>