<?xml version="1.0" encoding="UTF-8"?><svg id="Layer_1" xmlns="http://www.w3.org/2000/svg" viewBox="0 0 37.4 14.08"><defs><style>.cls-1{fill:#005b23;}.cls-2{fill:#fff;}</style></defs><path class="cls-1" d="M34.4,14H3c-1.66,0-3-1.34-3-3V3C0,1.34,1.34,0,3,0h31.4c1.66,0,3,1.34,3,3v8c0,1.66-1.34,3-3,3"/><g><path class="cls-2" d="M21.95,5.54c.02-.66,.18-1.21,.49-1.65,.5-.71,1.24-1.07,2.24-1.07,.77,0,1.38,.2,1.85,.58,.51,.42,.76,.97,.76,1.64,0,.4-.1,.75-.3,1.04s-.47,.49-.81,.59c.43,.1,.77,.32,1.02,.66,.25,.34,.38,.75,.38,1.23,0,.79-.29,1.44-.88,1.94-.54,.47-1.22,.7-2.04,.7-.89,0-1.6-.26-2.12-.77-.52-.51-.79-1.21-.79-2.08v-.1h1.54c0,.49,.12,.87,.35,1.14s.56,.4,.99,.4,.75-.13,.98-.38c.21-.24,.32-.52,.32-.85,0-.39-.13-.7-.41-.93-.22-.19-.56-.29-1.03-.29-.13,0-.26,0-.39,.02v-1.18c.09,0,.19,.01,.27,.01,.92,0,1.38-.34,1.38-1.02,0-.3-.1-.54-.3-.72-.2-.18-.46-.28-.79-.28-.38,0-.67,.12-.87,.35-.2,.23-.31,.57-.33,1.02h-1.51Z"/><path class="cls-2" d="M33.91,3.01v1.42h-3.22l-.34,1.8c.39-.41,.88-.61,1.48-.61s1.1,.16,1.54,.48c.65,.48,.97,1.2,.97,2.18s-.35,1.71-1.04,2.27c-.54,.44-1.18,.66-1.94,.66-.85,0-1.53-.23-2.04-.68-.51-.45-.79-1.07-.82-1.84h1.57c.03,.28,.12,.52,.27,.72,.24,.31,.58,.46,1.02,.46s.75-.15,1-.45c.24-.29,.36-.65,.36-1.08,0-.46-.12-.83-.37-1.1-.25-.28-.58-.41-.99-.41-.5,0-.9,.23-1.18,.68l-1.43-.02,.76-4.46h4.39Z"/></g><polygon class="cls-2" points="6.48 3 8.76 3 5.29 11 3 11 6.48 3"/><path class="cls-2" d="M15.21,8.63c.25,0,.48-.15,.58-.38l2.28-5.25H9.88l-3.47,8h2.27l2.63-5.99h3.62l-.83,1.91h-2.98s2.5,4.08,2.5,4.08h2.44l-1.96-2.37h1.12Z"/></svg>