<?xml version="1.0" encoding="UTF-8"?><svg id="Layer_1" xmlns="http://www.w3.org/2000/svg" viewBox="0 0 37.4 14.08"><defs><style>.cls-1{fill:#fff;}.cls-2{fill:#ad227a;}</style></defs><path class="cls-2" d="M34.4,14H3c-1.66,0-3-1.34-3-3V3C0,1.34,1.34,0,3,0h31.4c1.66,0,3,1.34,3,3v8c0,1.66-1.34,3-3,3"/><g><path class="cls-1" d="M21.95,5.54c.02-.66,.18-1.21,.49-1.65,.5-.71,1.24-1.07,2.24-1.07,.77,0,1.38,.2,1.85,.58,.51,.42,.76,.97,.76,1.64,0,.4-.1,.75-.3,1.04s-.47,.49-.81,.59c.43,.1,.77,.32,1.02,.66,.25,.34,.38,.75,.38,1.23,0,.79-.29,1.44-.88,1.94-.54,.47-1.22,.7-2.04,.7-.89,0-1.6-.26-2.12-.77-.52-.51-.79-1.21-.79-2.08v-.1h1.54c0,.49,.12,.87,.35,1.14s.56,.4,.99,.4,.75-.13,.98-.38c.21-.24,.32-.52,.32-.85,0-.39-.13-.7-.41-.93-.22-.19-.56-.29-1.03-.29-.13,0-.26,0-.39,.02v-1.18c.09,0,.19,.01,.27,.01,.92,0,1.38-.34,1.38-1.02,0-.3-.1-.54-.3-.72-.2-.18-.46-.28-.79-.28-.38,0-.67,.12-.87,.35-.2,.23-.31,.57-.33,1.02h-1.51Z"/><path class="cls-1" d="M34.18,5h-1.52c-.14-.62-.49-.92-1.05-.92-.59,0-1.01,.36-1.26,1.09-.1,.29-.18,.74-.25,1.34,.24-.32,.5-.56,.77-.7s.6-.21,.98-.21c.75,0,1.35,.27,1.81,.8,.43,.5,.65,1.13,.65,1.89,0,.9-.29,1.62-.88,2.17-.52,.49-1.16,.74-1.89,.74-.94,0-1.68-.36-2.2-1.07s-.79-1.71-.79-2.98c0-1.36,.28-2.43,.84-3.2,.54-.75,1.29-1.12,2.23-1.12,.89,0,1.56,.3,2.03,.89,.27,.34,.44,.77,.52,1.3Zm-2.71,1.83c-.38,0-.69,.16-.91,.48-.2,.28-.31,.62-.31,1.02s.1,.73,.31,1.02c.23,.33,.54,.49,.93,.49s.69-.16,.92-.46c.22-.29,.33-.64,.33-1.03s-.1-.72-.29-1c-.24-.34-.57-.51-.98-.51Z"/></g><polygon class="cls-1" points="6.48 3 8.76 3 5.29 11 3 11 6.48 3"/><path class="cls-1" d="M15.21,8.63c.25,0,.48-.15,.58-.38l2.28-5.25H9.88l-3.47,8h2.27l2.63-5.99h3.62l-.83,1.91h-2.98s2.5,4.08,2.5,4.08h2.44l-1.96-2.37h1.12Z"/></svg>