<?xml version="1.0" encoding="UTF-8"?><svg id="Layer_1" xmlns="http://www.w3.org/2000/svg" viewBox="0 0 37.4 14.08"><defs><style>.cls-1{fill:#b9d988;}.cls-2{fill:#231f20;}</style></defs><path class="cls-1" d="M34.4,14H3c-1.66,0-3-1.34-3-3V3C0,1.34,1.34,0,3,0h31.4c1.66,0,3,1.34,3,3v8c0,1.66-1.34,3-3,3"/><g><path class="cls-2" d="M21.95,5.54c.02-.66,.18-1.21,.49-1.65,.5-.71,1.24-1.07,2.24-1.07,.77,0,1.38,.2,1.85,.58,.51,.42,.76,.97,.76,1.64,0,.4-.1,.75-.3,1.04s-.47,.49-.81,.59c.43,.1,.77,.32,1.02,.66,.25,.34,.38,.75,.38,1.23,0,.79-.29,1.44-.88,1.94-.54,.47-1.22,.7-2.04,.7-.89,0-1.6-.26-2.12-.77-.52-.51-.79-1.21-.79-2.08v-.1h1.54c0,.49,.12,.87,.35,1.14s.56,.4,.99,.4,.75-.13,.98-.38c.21-.24,.32-.52,.32-.85,0-.39-.13-.7-.41-.93-.22-.19-.56-.29-1.03-.29-.13,0-.26,0-.39,.02v-1.18c.09,0,.19,.01,.27,.01,.92,0,1.38-.34,1.38-1.02,0-.3-.1-.54-.3-.72-.2-.18-.46-.28-.79-.28-.38,0-.67,.12-.87,.35-.2,.23-.31,.57-.33,1.02h-1.51Z"/><path class="cls-2" d="M34.12,3.01v1.36s-.17,.19-.39,.44c-.3,.34-.6,.77-.89,1.29-.29,.52-.52,1.02-.69,1.5-.35,.99-.56,2.13-.63,3.41h-1.65c.01-.6,.12-1.27,.31-2,.2-.73,.47-1.46,.82-2.2,.5-1.04,1.01-1.81,1.52-2.31h-3.77v-1.48h5.37Z"/></g><polygon class="cls-2" points="6.48 3 8.76 3 5.29 11 3 11 6.48 3"/><path class="cls-2" d="M15.21,8.63c.25,0,.48-.15,.58-.38l2.28-5.25H9.88l-3.47,8h2.27l2.63-5.99h3.62l-.83,1.91h-2.98s2.5,4.08,2.5,4.08h2.44l-1.96-2.37h1.12Z"/></svg>