<?xml version="1.0" encoding="UTF-8"?><svg id="Layer_1" xmlns="http://www.w3.org/2000/svg" viewBox="0 0 37.4 14.08"><defs><style>.cls-1{fill:#007ebd;}.cls-2{fill:#fff;}</style></defs><path class="cls-1" d="M34.4,14H3c-1.66,0-3-1.34-3-3V3C0,1.34,1.34,0,3,0h31.4c1.66,0,3,1.34,3,3v8c0,1.66-1.34,3-3,3"/><g><path class="cls-2" d="M27.4,5h-1.52c-.14-.62-.49-.92-1.05-.92-.59,0-1.01,.36-1.26,1.09-.1,.29-.18,.74-.25,1.34,.24-.32,.5-.56,.77-.7,.27-.14,.6-.21,.98-.21,.75,0,1.35,.27,1.81,.8,.43,.5,.65,1.13,.65,1.89,0,.9-.29,1.62-.88,2.17-.53,.49-1.16,.74-1.89,.74-.94,0-1.68-.36-2.2-1.07-.52-.71-.79-1.71-.79-2.98,0-1.36,.28-2.43,.84-3.2,.54-.75,1.29-1.12,2.23-1.12,.89,0,1.56,.3,2.03,.89,.27,.34,.44,.77,.52,1.3Zm-2.71,1.83c-.38,0-.69,.16-.91,.48-.2,.28-.31,.62-.31,1.02s.1,.73,.31,1.02c.23,.33,.54,.49,.93,.49s.69-.16,.92-.46c.22-.29,.33-.64,.33-1.03s-.1-.72-.3-1c-.24-.34-.57-.51-.98-.51Z"/><path class="cls-2" d="M33.91,3.01v1.42h-3.22l-.34,1.8c.39-.41,.88-.61,1.48-.61s1.1,.16,1.54,.48c.65,.48,.97,1.2,.97,2.18s-.35,1.71-1.04,2.27c-.54,.44-1.18,.66-1.94,.66-.85,0-1.53-.23-2.04-.68-.51-.45-.79-1.07-.82-1.84h1.57c.03,.28,.12,.52,.27,.72,.24,.31,.58,.46,1.02,.46s.75-.15,1-.45c.24-.29,.36-.65,.36-1.08,0-.46-.12-.83-.37-1.1-.25-.28-.58-.41-.99-.41-.5,0-.9,.23-1.18,.68l-1.43-.02,.76-4.46h4.39Z"/></g><polygon class="cls-2" points="6.48 3 8.76 3 5.29 11 3 11 6.48 3"/><path class="cls-2" d="M15.21,8.63c.25,0,.48-.15,.58-.38l2.28-5.25H9.88l-3.47,8h2.27l2.63-5.99h3.62l-.83,1.91h-2.98s2.5,4.08,2.5,4.08h2.44l-1.96-2.37h1.12Z"/></svg>