<?xml version="1.0" encoding="UTF-8"?><svg id="Layer_1" xmlns="http://www.w3.org/2000/svg" viewBox="0 0 37.4 14.08"><defs><style>.cls-1{fill:#f290bb;}.cls-2{fill:#231f20;}</style></defs><path class="cls-1" d="M34.4,14H3c-1.66,0-3-1.34-3-3V3C0,1.34,1.34,0,3,0h31.4c1.66,0,3,1.34,3,3v8c0,1.66-1.34,3-3,3"/><g><path class="cls-2" d="M27.34,3.01v1.36s-.17,.19-.39,.44c-.3,.34-.6,.77-.89,1.29-.3,.52-.53,1.02-.69,1.5-.35,.99-.56,2.13-.63,3.41h-1.65c.01-.6,.12-1.27,.31-2,.2-.73,.47-1.46,.82-2.2,.5-1.04,1.01-1.81,1.52-2.31h-3.77v-1.48h5.36Z"/><path class="cls-2" d="M31.47,2.81c.61,0,1.15,.19,1.61,.56,.46,.37,.79,.94,1,1.72,.16,.59,.23,1.23,.23,1.93,0,1.15-.2,2.09-.61,2.83-.24,.43-.55,.76-.94,1-.39,.23-.82,.35-1.3,.35-.65,0-1.21-.2-1.67-.59-.82-.7-1.24-1.9-1.24-3.59,0-1.2,.21-2.17,.65-2.9,.24-.42,.56-.74,.96-.96,.4-.23,.83-.34,1.31-.34Zm-.06,1.35c-.53,0-.88,.3-1.07,.91-.15,.48-.22,1.16-.22,2.02,0,.77,.08,1.38,.23,1.84,.2,.6,.56,.9,1.09,.9,.44,0,.77-.23,.98-.7,.21-.47,.32-1.18,.32-2.14,0-.82-.08-1.46-.23-1.93-.2-.61-.57-.91-1.1-.91Z"/></g><polygon class="cls-2" points="6.48 3 8.76 3 5.29 11 3 11 6.48 3"/><path class="cls-2" d="M15.21,8.63c.25,0,.48-.15,.58-.38l2.28-5.25H9.88l-3.47,8h2.27l2.63-5.99h3.62l-.83,1.91h-2.98s2.5,4.08,2.5,4.08h2.44l-1.96-2.37h1.12Z"/></svg>