<?xml version="1.0" encoding="UTF-8"?><svg id="Layer_1" xmlns="http://www.w3.org/2000/svg" viewBox="0 0 37.4 14.08"><defs><style>.cls-1{fill:#fff;}.cls-2{fill:#754c96;}</style></defs><path class="cls-2" d="M34.4,14H3c-1.66,0-3-1.34-3-3V3C0,1.34,1.34,0,3,0h31.4c1.66,0,3,1.34,3,3v8c0,1.66-1.34,3-3,3"/><g><path class="cls-1" d="M27.34,3.01v1.36s-.17,.19-.39,.44c-.3,.34-.6,.77-.89,1.29-.3,.52-.53,1.02-.69,1.5-.35,.99-.56,2.13-.63,3.41h-1.65c.01-.6,.12-1.27,.31-2,.2-.73,.47-1.46,.82-2.2,.5-1.04,1.01-1.81,1.52-2.31h-3.77v-1.48h5.36Z"/><path class="cls-1" d="M33.91,3.01v1.42h-3.22l-.34,1.8c.39-.41,.88-.61,1.48-.61s1.1,.16,1.54,.48c.65,.48,.97,1.2,.97,2.18s-.35,1.71-1.04,2.27c-.54,.44-1.18,.66-1.94,.66-.85,0-1.53-.23-2.04-.68-.51-.45-.79-1.07-.82-1.84h1.57c.03,.28,.12,.52,.27,.72,.24,.31,.58,.46,1.02,.46s.75-.15,1-.45c.24-.29,.36-.65,.36-1.08,0-.46-.12-.83-.37-1.1-.25-.28-.58-.41-.99-.41-.5,0-.9,.23-1.18,.68l-1.43-.02,.76-4.46h4.39Z"/></g><polygon class="cls-1" points="6.48 3 8.76 3 5.29 11 3 11 6.48 3"/><path class="cls-1" d="M15.21,8.63c.25,0,.48-.15,.58-.38l2.28-5.25H9.88l-3.47,8h2.27l2.63-5.99h3.62l-.83,1.91h-2.98s2.5,4.08,2.5,4.08h2.44l-1.96-2.37h1.12Z"/></svg>