<?xml version="1.0" encoding="UTF-8"?><svg id="Layer_1" xmlns="http://www.w3.org/2000/svg" viewBox="0 0 37.4 14.08"><defs><style>.cls-1{fill:#007ca1;}.cls-2{fill:#fff;}</style></defs><path class="cls-1" d="M34.4,14H3c-1.66,0-3-1.34-3-3V3C0,1.34,1.34,0,3,0h31.4c1.66,0,3,1.34,3,3v8c0,1.66-1.34,3-3,3"/><g><path class="cls-2" d="M21.91,8.99h1.51c.12,.62,.48,.93,1.08,.93,.33,0,.61-.11,.82-.34s.37-.58,.48-1.06c.07-.31,.12-.65,.16-1.04-.24,.34-.5,.59-.75,.73-.26,.14-.57,.22-.94,.22-.59,0-1.1-.17-1.53-.51-.3-.24-.54-.55-.71-.93-.17-.38-.25-.8-.25-1.25,0-.9,.31-1.63,.92-2.19,.53-.48,1.16-.72,1.9-.72,.46,0,.88,.1,1.26,.31,.39,.21,.71,.49,.97,.87,.46,.67,.69,1.6,.69,2.81,0,1.12-.2,2.07-.61,2.85-.53,1.03-1.34,1.54-2.42,1.54-.72,0-1.31-.2-1.78-.6-.47-.4-.74-.93-.81-1.6Zm2.66-4.83c-.34,0-.63,.14-.87,.42-.24,.28-.36,.65-.36,1.08,0,.35,.09,.67,.26,.94,.23,.38,.56,.56,.98,.56,.38,0,.69-.15,.92-.46,.21-.29,.32-.63,.32-1.03,0-.42-.11-.77-.33-1.07-.23-.3-.54-.45-.92-.45Z"/><path class="cls-2" d="M31.47,2.81c.61,0,1.15,.19,1.61,.56,.46,.37,.79,.94,1,1.72,.16,.59,.23,1.23,.23,1.93,0,1.15-.2,2.09-.61,2.83-.24,.43-.55,.76-.94,1-.39,.23-.82,.35-1.3,.35-.65,0-1.21-.2-1.67-.59-.82-.7-1.24-1.9-1.24-3.59,0-1.2,.21-2.17,.65-2.9,.24-.42,.56-.74,.96-.96,.4-.23,.83-.34,1.31-.34Zm-.06,1.35c-.53,0-.88,.3-1.07,.91-.15,.48-.22,1.16-.22,2.02,0,.77,.08,1.38,.23,1.84,.2,.6,.56,.9,1.09,.9,.44,0,.77-.23,.98-.7,.21-.47,.32-1.18,.32-2.14,0-.82-.08-1.46-.23-1.93-.2-.61-.57-.91-1.1-.91Z"/></g><polygon class="cls-2" points="6.48 3 8.76 3 5.29 11 3 11 6.48 3"/><path class="cls-2" d="M15.21,8.63c.25,0,.48-.15,.58-.38l2.28-5.25H9.88l-3.47,8h2.27l2.63-5.99h3.62l-.83,1.91h-2.98s2.5,4.08,2.5,4.08h2.44l-1.96-2.37h1.12Z"/></svg>